<svg xmlns="http://www.w3.org/2000/svg" viewBox="0 0 50 50">
  <path d="M0 7L0 43L50 43L50 7 Z M 2 9L48 9L48 11.5C47.609375 11.839844 30.074219 27.136719 28.4375 28.5625L28.34375 28.65625C27.046875 29.785156 25.71875 30 25 30C24.285156 30 22.953125 29.785156 21.65625 28.65625C21.285156 28.332031 18.613281 26.023438 16.6875 24.34375C10.972656 19.359375 2.292969 11.757813 2 11.5 Z M 2 14.15625C3.734375 15.667969 9.886719 21.023438 15.125 25.59375L2 35.96875 Z M 48 14.15625L48 35.96875L34.875 25.59375C40.113281 21.023438 46.265625 15.667969 48 14.15625 Z M 16.65625 26.9375C17.871094 27.996094 20.066406 29.914063 20.34375 30.15625L20.375 30.1875C22.066406 31.640625 23.863281 32 25 32C26.144531 32 27.957031 31.636719 29.65625 30.15625C29.9375 29.914063 32.148438 28.007813 33.375 26.9375L48 38.5L48 41L2 41L2 38.5Z" fill="#5B5B5B" />
</svg>